<?xml version="1.0" encoding="utf-8"?>
<!-- Generator: Adobe Illustrator 16.0.0, SVG Export Plug-In . SVG Version: 6.00 Build 0)  -->
<!DOCTYPE svg PUBLIC "-//W3C//DTD SVG 1.1//EN" "http://www.w3.org/Graphics/SVG/1.1/DTD/svg11.dtd">
<svg version="1.1" id="Layer_1" xmlns="http://www.w3.org/2000/svg" xmlns:xlink="http://www.w3.org/1999/xlink" x="0px" y="0px"
	 width="589.828px" height="361.238px" viewBox="0 0 589.828 361.238" enable-background="new 0 0 589.828 361.238"
	 xml:space="preserve">
<path fill="#689F63" d="M291.529,361.239c-1.946,0-3.88-0.511-5.586-1.493l-17.783-10.528c-2.656-1.485-1.36-2.011-0.484-2.313
	c3.542-1.239,4.26-1.52,8.04-3.666c0.397-0.227,0.917-0.146,1.324,0.093l13.662,8.107c0.493,0.267,1.193,0.267,1.65,0l53.267-30.747
	c0.494-0.28,0.813-0.854,0.813-1.439v-61.467c0-0.613-0.319-1.16-0.824-1.467l-53.245-30.721c-0.493-0.293-1.146-0.293-1.64,0
	l-53.234,30.721c-0.516,0.293-0.844,0.867-0.844,1.453v61.467c0,0.587,0.32,1.146,0.826,1.427l14.587,8.427
	c7.92,3.96,12.76-0.707,12.76-5.4v-60.666c0-0.867,0.68-1.533,1.547-1.533h6.747c0.84,0,1.533,0.666,1.533,1.533v60.692
	c0,10.561-5.76,16.627-15.773,16.627c-3.08,0-5.507,0-12.28-3.333l-13.973-8.054c-3.454-2-5.587-5.733-5.587-9.72v-61.467
	c0-4,2.133-7.733,5.587-9.707l53.32-30.76c3.374-1.906,7.854-1.906,11.201,0l53.252,30.773c3.44,1.986,5.588,5.707,5.588,9.707
	v61.467c0,3.986-2.147,7.706-5.588,9.706l-53.252,30.76c-1.707,0.987-3.641,1.493-5.614,1.493"/>
<path fill="#689F63" d="M307.983,318.885c-23.307,0-28.193-10.698-28.193-19.672c0-0.854,0.688-1.533,1.542-1.533h6.88
	c0.76,0,1.4,0.553,1.52,1.304c1.04,7.011,4.133,10.547,18.226,10.547c11.227,0,16-2.536,16-8.489c0-3.427-1.359-5.974-18.8-7.68
	c-14.586-1.44-23.6-4.654-23.6-16.32c0-10.747,9.066-17.146,24.253-17.146c17.053,0,25.507,5.92,26.574,18.64
	c0.039,0.44-0.121,0.866-0.414,1.187c-0.293,0.307-0.707,0.494-1.133,0.494h-6.92c-0.721,0-1.348-0.508-1.494-1.201
	c-1.666-7.373-5.693-9.732-16.64-9.732c-12.253,0-13.68,4.266-13.68,7.467c0,3.879,1.68,5.013,18.213,7.199
	c16.374,2.174,24.146,5.24,24.146,16.747c0,11.6-9.68,18.253-26.56,18.253 M372.785,253.761h1.787c1.467,0,1.747-1.026,1.747-1.626
	c0-1.574-1.08-1.574-1.681-1.574h-1.84L372.785,253.761z M370.613,248.721h3.959c1.36,0,4.027,0,4.027,3.04
	c0,2.12-1.36,2.56-2.174,2.827c1.587,0.106,1.693,1.146,1.906,2.613c0.107,0.92,0.281,2.506,0.601,3.039h-2.44
	c-0.066-0.533-0.439-3.466-0.439-3.626c-0.16-0.653-0.387-0.974-1.2-0.974h-2.013v4.613h-2.227V248.721z M365.852,254.454
	c0,4.773,3.854,8.64,8.587,8.64c4.773,0,8.627-3.946,8.627-8.64c0-4.786-3.907-8.587-8.641-8.587c-4.666,0-8.586,3.747-8.586,8.574
	 M384.718,254.48c0,5.654-4.627,10.268-10.266,10.268c-5.601,0-10.268-4.561-10.268-10.268c0-5.812,4.773-10.266,10.268-10.266
	c5.533,0,10.253,4.466,10.253,10.266"/>
<path fill="#333333" d="M126.582,120.733c0-2.454-1.293-4.707-3.411-5.927L66.697,82.313c-0.954-0.56-2.021-0.853-3.104-0.893
	h-0.584c-1.083,0.04-2.151,0.333-3.12,0.893L3.417,114.807c-2.104,1.227-3.416,3.48-3.416,5.933l0.124,87.52
	c0,1.213,0.626,2.347,1.693,2.946c1.04,0.64,2.347,0.64,3.387,0l33.573-19.227c2.12-1.261,3.414-3.49,3.414-5.92v-40.887
	c0-2.44,1.293-4.693,3.407-5.906l14.293-8.232c1.062-0.613,2.227-0.917,3.414-0.917c1.168,0,2.36,0.301,3.392,0.916l14.287,8.229
	c2.114,1.213,3.413,3.467,3.413,5.907v40.884c0,2.427,1.311,4.667,3.42,5.92l33.552,19.214c1.053,0.626,2.364,0.626,3.413,0
	c1.035-0.601,1.691-1.733,1.691-2.946L126.582,120.733z M393.072,166.301c0,0.609-0.324,1.174-0.854,1.475l-19.396,11.181
	c-0.527,0.303-1.178,0.303-1.703,0l-19.4-11.181c-0.533-0.303-0.854-0.867-0.854-1.475v-22.395c0-0.61,0.32-1.173,0.841-1.48
	l19.386-11.2c0.534-0.307,1.188-0.307,1.721,0l19.4,11.2c0.533,0.307,0.854,0.87,0.854,1.48L393.072,166.301z M398.312,0.432
	c-1.059-0.589-2.347-0.574-3.393,0.036c-1.039,0.614-1.682,1.733-1.682,2.947v86.667c0,0.854-0.453,1.64-1.192,2.067
	c-0.733,0.427-1.646,0.427-2.387,0L375.512,84c-2.106-1.219-4.702-1.219-6.815,0l-56.494,32.604
	c-2.11,1.213-3.413,3.466-3.413,5.893v65.227c0,2.44,1.303,4.681,3.413,5.907l56.494,32.626c2.109,1.214,4.706,1.214,6.822,0
	l56.492-32.64c2.107-1.227,3.414-3.467,3.414-5.906V25.15c0-2.475-1.348-4.75-3.506-5.96L398.312,0.432z M586.435,143.317
	c2.1-1.218,3.391-3.469,3.391-5.896v-15.808c0-2.432-1.293-4.676-3.395-5.9l-56.135-32.586c-2.119-1.227-4.719-1.227-6.84,0
	l-56.479,32.6c-2.121,1.227-3.414,3.467-3.414,5.907v65.2c0,2.453,1.32,4.72,3.439,5.934l56.121,31.986
	c2.066,1.187,4.6,1.2,6.693,0.04l33.945-18.867c1.066-0.6,1.748-1.732,1.748-2.959s-0.654-2.374-1.721-2.974l-56.826-32.613
	c-1.066-0.6-1.721-1.733-1.721-2.947v-20.454c0-1.221,0.641-2.346,1.707-2.955l17.68-10.2c1.053-0.613,2.346-0.613,3.4,0
	l17.693,10.2c1.053,0.6,1.707,1.733,1.707,2.947v16.08c0,1.213,0.652,2.347,1.705,2.96c1.055,0.6,2.361,0.6,3.414-0.013
	L586.435,143.317z"/>
<path fill="#689F63" d="M526.05,140.267c0.4-0.236,0.902-0.236,1.307,0l10.84,6.253c0.406,0.235,0.654,0.667,0.654,1.134v12.52
	c0,0.467-0.248,0.899-0.654,1.134l-10.84,6.253c-0.404,0.236-0.906,0.236-1.307,0l-10.834-6.253
	c-0.412-0.235-0.666-0.667-0.666-1.134v-12.52c0-0.467,0.24-0.899,0.654-1.134L526.05,140.267z"/>
<g>
	<defs>
		<path id="SVGID_1_" d="M214.299,83.452l-56.173,32.423c-2.104,1.213-3.395,3.453-3.395,5.875v64.891
			c0,2.423,1.291,4.661,3.395,5.874l56.177,32.449c2.1,1.209,4.689,1.209,6.787,0l56.168-32.449
			c2.093-1.213,3.387-3.453,3.387-5.874v-64.891c0-2.421-1.293-4.661-3.4-5.875l-56.16-32.423c-1.053-0.604-2.227-0.907-3.4-0.907
			s-2.347,0.303-3.4,0.907"/>
	</defs>
	<clipPath id="SVGID_2_">
		<use xlink:href="#SVGID_1_"  overflow="visible"/>
	</clipPath>
	<g transform="translate(-78.306 -164.016)" clip-path="url(#SVGID_2_)">
		
			<linearGradient id="SVGID_3_" gradientUnits="userSpaceOnUse" x1="-586.2013" y1="886.559" x2="-584.6022" y2="886.559" gradientTransform="matrix(-50.7531 103.536 103.536 50.7531 -121205.625 15932.877)">
			<stop  offset="0.3" style="stop-color:#3E863D"/>
			<stop  offset="0.5" style="stop-color:#55934F"/>
			<stop  offset="0.8" style="stop-color:#5AAD45"/>
		</linearGradient>
		<path fill="url(#SVGID_3_)" d="M415.716,274.385l-158.287-77.586l-81.16,165.565l158.282,77.59L415.716,274.385z"/>
	</g>
</g>
<g>
	<defs>
		<path id="SVGID_4_" d="M156.123,190.76c0.538,0.697,1.209,1.301,2,1.754l48.187,27.834l8.027,4.613
			c1.2,0.693,2.568,0.986,3.912,0.887c0.448-0.036,0.896-0.12,1.333-0.244l59.246-108.479c-0.454-0.494-0.984-0.907-1.579-1.253
			l-36.781-21.24l-19.442-11.187c-0.552-0.32-1.151-0.547-1.76-0.707L156.123,190.76z"/>
	</defs>
	<clipPath id="SVGID_5_">
		<use xlink:href="#SVGID_4_"  overflow="visible"/>
	</clipPath>
	<g transform="translate(-78.306 -164.016)" clip-path="url(#SVGID_5_)">
		
			<linearGradient id="SVGID_6_" gradientUnits="userSpaceOnUse" x1="-586.5563" y1="884.1908" x2="-585.5182" y2="884.1908" gradientTransform="matrix(142.4074 -105.2221 -105.2221 -142.4074 176788.3438 64569.6055)">
			<stop  offset="0.57" style="stop-color:#3E863D"/>
			<stop  offset="0.72" style="stop-color:#619857"/>
			<stop  offset="1" style="stop-color:#76AC64"/>
		</linearGradient>
		<path fill="url(#SVGID_6_)" d="M165.992,297.333l111.766,151.271l147.813-109.208L313.798,188.129L165.992,297.333z"/>
	</g>
</g>
<g>
	<defs>
		<path id="SVGID_7_" d="M217.014,82.583c-0.942,0.093-1.864,0.387-2.713,0.869l-56.013,32.33l60.4,110.014
			c0.84-0.121,1.667-0.4,2.414-0.832l56.173-32.449c1.733-1.005,2.92-2.706,3.28-4.634L218.98,82.693
			c-0.454-0.089-0.907-0.136-1.374-0.136c-0.187,0-0.374,0.009-0.56,0.027"/>
	</defs>
	<clipPath id="SVGID_8_">
		<use xlink:href="#SVGID_7_"  overflow="visible"/>
	</clipPath>
	<g transform="translate(-78.306 -164.016)" clip-path="url(#SVGID_8_)">
		
			<linearGradient id="SVGID_9_" gradientUnits="userSpaceOnUse" x1="-585.2706" y1="884.2386" x2="-584.3297" y2="884.2386" gradientTransform="matrix(129.8891 0 0 -129.8891 76256.8984 115171.1641)">
			<stop  offset="0.16" style="stop-color:#6BBF47"/>
			<stop  offset="0.38" style="stop-color:#79B461"/>
			<stop  offset="0.47" style="stop-color:#75AC64"/>
			<stop  offset="0.7" style="stop-color:#659E5A"/>
			<stop  offset="0.9" style="stop-color:#3E863D"/>
		</linearGradient>
		<path fill="url(#SVGID_9_)" d="M236.592,246.573v143.24h122.244v-143.24H236.592z"/>
	</g>
</g>
</svg>
